<?xml version="1.0" encoding="utf-8"?>
<!-- Generator: Adobe Illustrator 15.1.0, SVG Export Plug-In . SVG Version: 6.00 Build 0)  -->
<!DOCTYPE svg PUBLIC "-//W3C//DTD SVG 1.1//EN" "http://www.w3.org/Graphics/SVG/1.1/DTD/svg11.dtd">
<svg version="1.1" id="Layer_1" xmlns="http://www.w3.org/2000/svg" xmlns:xlink="http://www.w3.org/1999/xlink" x="0px" y="0px"
	 width="60px" height="60px" viewBox="0 0 60 60" enable-background="new 0 0 60 60" xml:space="preserve">
<g>
	<path fill="#103F8B" stroke="#103F8B" stroke-width="1.2" stroke-miterlimit="10" d="M53.2,55.523c0,0.927-0.818,1.677-1.827,1.677
		H8.627c-1.009,0-1.827-0.75-1.827-1.677V4.476C6.8,3.551,7.618,2.8,8.627,2.8h42.746c1.009,0,1.827,0.751,1.827,1.676V55.523z"/>
	<g>
		<path fill="#FFFFFF" d="M30.503,31.829l-0.843-2.482h-8.581l-3.163,12.125h-3.231l8.872-28.714h3.77l5.894,17.269 M29.014,26.906
			l-2.369-6.966c-0.539-1.579-0.897-3.016-1.257-4.416h-0.072c-0.359,1.436-0.754,2.908-1.22,4.379l-2.37,7.002h7.288V26.906z"/>
		<path fill="#FFFFFF" d="M42.693,20.469v21.004c0,1.545,0.035,3.303,0.145,4.488h-2.837l-0.144-3.018h-0.071
			c-0.97,1.939-3.088,3.412-5.925,3.412c-4.201,0-7.432-3.555-7.432-8.832c-0.036-5.78,3.554-9.335,7.792-9.335
			c2.655,0,4.451,1.256,5.241,2.658h0.071V20.469H42.693z M39.534,35.656c0-0.396-0.036-0.934-0.144-1.328
			c-0.468-2.012-2.189-3.662-4.561-3.662c-3.268,0-5.206,2.872-5.206,6.714c0,3.519,1.724,6.427,5.135,6.427
			c2.117,0,4.058-1.399,4.632-3.77c0.106-0.432,0.144-0.862,0.144-1.365V35.656z"/>
	</g>
</g>
</svg>
