<?xml version="1.0" encoding="utf-8"?>
<!-- Generator: Adobe Illustrator 15.1.0, SVG Export Plug-In . SVG Version: 6.00 Build 0)  -->
<!DOCTYPE svg PUBLIC "-//W3C//DTD SVG 1.1//EN" "http://www.w3.org/Graphics/SVG/1.1/DTD/svg11.dtd">
<svg version="1.1" id="Layer_1" xmlns="http://www.w3.org/2000/svg" xmlns:xlink="http://www.w3.org/1999/xlink" x="0px" y="0px"
	 width="60px" height="60px" viewBox="0 0 60 60" enable-background="new 0 0 60 60" xml:space="preserve">
<g>
	<polyline fill="none" stroke="#10FAFF" stroke-width="2.688" stroke-miterlimit="10" points="31.939,42.706 6.716,47.786 
		6.716,7.687 31.939,12.767 	"/>
	<polyline fill="none" stroke="#10FAFF" stroke-width="1.536" stroke-miterlimit="10" points="7.314,13.116 2.836,12.215 
		2.836,52.312 30.646,47.232 51.988,51.666 53.283,46.492 	"/>
	
		<line fill="none" stroke="#10FAFF" stroke-width="0.768" stroke-miterlimit="10" x1="31.939" y1="12.767" x2="31.939" y2="42.706"/>
	
		<line fill="none" stroke="#10FAFF" stroke-width="1.152" stroke-miterlimit="10" x1="14.478" y1="32.911" x2="25.473" y2="32.911"/>
	
		<line fill="none" stroke="#10FAFF" stroke-width="1.152" stroke-miterlimit="10" x1="14.478" y1="27.736" x2="25.473" y2="27.736"/>
	
		<line fill="none" stroke="#10FAFF" stroke-width="1.152" stroke-miterlimit="10" x1="14.478" y1="22.562" x2="25.473" y2="22.562"/>
	
		<line fill="none" stroke="#10FAFF" stroke-width="1.152" stroke-miterlimit="10" x1="48.756" y1="32.911" x2="37.762" y2="32.911"/>
	
		<line fill="none" stroke="#10FAFF" stroke-width="1.152" stroke-miterlimit="10" x1="48.756" y1="27.736" x2="37.762" y2="27.736"/>
	
		<line fill="none" stroke="#10FAFF" stroke-width="1.152" stroke-miterlimit="10" x1="48.756" y1="22.562" x2="37.762" y2="22.562"/>
	<polyline fill="none" stroke="#10FAFF" stroke-width="2.688" stroke-miterlimit="10" points="31.939,42.706 57.164,47.786 
		57.164,7.687 31.939,12.767 	"/>
</g>
</svg>
