<?xml version="1.0" encoding="utf-8"?>
<!-- Generator: Adobe Illustrator 15.1.0, SVG Export Plug-In . SVG Version: 6.00 Build 0)  -->
<!DOCTYPE svg PUBLIC "-//W3C//DTD SVG 1.1//EN" "http://www.w3.org/Graphics/SVG/1.1/DTD/svg11.dtd">
<svg version="1.1" id="Layer_1" xmlns="http://www.w3.org/2000/svg" xmlns:xlink="http://www.w3.org/1999/xlink" x="0px" y="0px"
	 width="60px" height="60px" viewBox="0 0 60 60" enable-background="new 0 0 60 60" xml:space="preserve">
<g>
	<path fill="none" stroke="#103F8B" stroke-width="2.8" stroke-miterlimit="10" d="M57.064,48.102c0,2.787-2.26,5.047-5.047,5.047
		H7.982c-2.787,0-5.047-2.26-5.047-5.047v-26.23c0-2.787,2.26-5.047,5.047-5.047h44.036c2.787,0,5.047,2.26,5.047,5.047V48.102z"/>
	<line fill="none" stroke="#103F8B" stroke-width="1.2" stroke-miterlimit="10" x1="3.647" y1="21.81" x2="55.641" y2="21.81"/>
	<path fill="none" stroke="#103F8B" stroke-width="2.8" stroke-miterlimit="10" d="M47.716,6.853H39.35
		c-0.838,0-1.516,0.679-1.516,1.515v8.484c3.818-0.085,7.602-0.34,11.396-0.54V8.367C49.229,7.531,48.552,6.853,47.716,6.853z"/>
	<circle fill="none" stroke="#103F8B" stroke-width="2" stroke-miterlimit="10" cx="29.288" cy="37.122" r="12.577"/>
	<circle fill="#103F8B" cx="29.288" cy="37.122" r="9.48"/>
</g>
</svg>
