<?xml version="1.0" encoding="utf-8"?>
<!-- Generator: Adobe Illustrator 15.1.0, SVG Export Plug-In . SVG Version: 6.00 Build 0)  -->
<!DOCTYPE svg PUBLIC "-//W3C//DTD SVG 1.1//EN" "http://www.w3.org/Graphics/SVG/1.1/DTD/svg11.dtd">
<svg version="1.1" id="Layer_1" xmlns="http://www.w3.org/2000/svg" xmlns:xlink="http://www.w3.org/1999/xlink" x="0px" y="0px"
	 width="183.951px" height="97.53px" viewBox="0 0 183.951 97.53" enable-background="new 0 0 183.951 97.53" xml:space="preserve">
<path fill="#FFFFFF" d="M70.475,46.199c0,0-14.312-33.025,18.714-37.429s31.925,28.622,31.925,28.622s16.512-11.009,27.521-2.202
	s5.504,11.009,5.504,11.009s24.219-8.807,24.219,9.907S166.248,73.72,166.248,73.72c-12.109,0-12.109,0-12.109,0l-13.21-3.303
	c0,0-1.101,14.312-13.21,16.513c-12.109,2.202-26.42-11.008-26.42-11.008S89.189,90.232,79.282,90.232c-9.908,0-9.908,0-9.908,0l0,0
	L53.962,75.922c0,0-31.925,14.311-42.933-3.303C0.021,55.006,7.727,52.804,26.442,46.199C45.156,39.594,70.475,46.199,70.475,46.199
	z"/>
</svg>
