<?xml version="1.0" encoding="utf-8"?>
<!-- Generator: Adobe Illustrator 15.1.0, SVG Export Plug-In . SVG Version: 6.00 Build 0)  -->
<!DOCTYPE svg PUBLIC "-//W3C//DTD SVG 1.1//EN" "http://www.w3.org/Graphics/SVG/1.1/DTD/svg11.dtd">
<svg version="1.1" id="Layer_1" xmlns="http://www.w3.org/2000/svg" xmlns:xlink="http://www.w3.org/1999/xlink" x="0px" y="0px"
	 width="118.519px" height="46.914px" viewBox="0 0 118.519 46.914" enable-background="new 0 0 118.519 46.914"
	 xml:space="preserve">
<path fill="#FFFFFF" d="M34.354,31.798c0,0-6.73,17.018-21.029,4.255C-0.979,23.29,2.388,13.93,20.896,14.781
	c0,0-5.889-13.614,12.617-9.36c18.51,4.254,26.922,8.509,26.922,8.509S55.386-2.236,71.37,2.869
	c15.986,5.105,12.621,16.167,12.621,16.167s9.254-4.254,15.986,2.552c6.73,6.807,6.73,11.062,6.73,11.062s10.936-2.553,10.096,5.105
	c-0.842,7.658-31.973,2.552-31.973,2.552s4.207,6.807-13.461,3.403C53.704,40.308,34.354,31.798,34.354,31.798z"/>
</svg>
