<?xml version="1.0" encoding="utf-8"?>
<!-- Generator: Adobe Illustrator 15.1.0, SVG Export Plug-In . SVG Version: 6.00 Build 0)  -->
<!DOCTYPE svg PUBLIC "-//W3C//DTD SVG 1.1//EN" "http://www.w3.org/Graphics/SVG/1.1/DTD/svg11.dtd">
<svg version="1.1" id="Layer_1" xmlns="http://www.w3.org/2000/svg" xmlns:xlink="http://www.w3.org/1999/xlink" x="0px" y="0px"
	 width="182.716px" height="87.654px" viewBox="0 0 182.716 87.654" enable-background="new 0 0 182.716 87.654"
	 xml:space="preserve">
<path fill="#FFFFFF" d="M62.769,32.354c0,0-6.393-23.999,28.105-23.999s23.999,25.499,23.999,25.499s23.999-6,32.999,0
	c8.999,6,8.999,6,8.999,6s22.499,4.5,22.499,13.499s-6,13.499-19.5,10.499c-13.498-3-23.998,9.001-43.497,13.5
	s-32.999-10.5-32.999-10.5s-7.5,14.999-29.998,14.999S29.378,63.853,29.378,63.853s-25.5,9-22.5-11.999S62.769,32.354,62.769,32.354
	z"/>
</svg>
