<?xml version="1.0" encoding="utf-8"?>
<!-- Generator: Adobe Illustrator 15.1.0, SVG Export Plug-In . SVG Version: 6.00 Build 0)  -->
<!DOCTYPE svg PUBLIC "-//W3C//DTD SVG 1.1//EN" "http://www.w3.org/Graphics/SVG/1.1/DTD/svg11.dtd">
<svg version="1.1" id="Layer_1" xmlns="http://www.w3.org/2000/svg" xmlns:xlink="http://www.w3.org/1999/xlink" x="0px" y="0px"
	 width="321.688px" height="336.145px" viewBox="0 0 321.688 336.145" enable-background="new 0 0 321.688 336.145"
	 xml:space="preserve">
<g>
	<g>
		<g>
			<g>
				<defs>
					<path id="SVGID_1_" d="M200.296,256.203c-26.258,24.506-67.414,23.089-91.922-3.172c-24.504-26.257-23.08-67.414,3.178-91.919
						c26.261-24.508,67.415-23.087,91.919,3.17C227.977,190.543,226.556,231.696,200.296,256.203z"/>
				</defs>
				<clipPath id="SVGID_2_">
					<use xlink:href="#SVGID_1_"  overflow="visible"/>
				</clipPath>
				<polygon clip-path="url(#SVGID_2_)" fill="#231F20" points="216.964,183.712 219.01,185.906 185.806,217.031 183.76,214.837 
									"/>
			</g>
			<g>
				<defs>
					<path id="SVGID_3_" d="M198.937,255.464c-26.258,24.505-67.414,23.089-91.922-3.173c-24.504-26.257-23.08-67.413,3.178-91.919
						c26.261-24.508,67.415-23.087,91.919,3.17C226.619,189.803,225.198,230.956,198.937,255.464z"/>
				</defs>
				<clipPath id="SVGID_4_">
					<use xlink:href="#SVGID_3_"  overflow="visible"/>
				</clipPath>
				<polygon clip-path="url(#SVGID_4_)" fill="#231F20" points="217.964,191.046 220.01,193.24 187.777,223.436 185.73,221.242 				
					"/>
			</g>
			<g>
				<defs>
					<path id="SVGID_5_" d="M198.247,252.725c-26.258,24.506-67.414,23.089-91.922-3.172c-24.504-26.257-23.08-67.413,3.178-91.919
						c26.261-24.508,67.414-23.087,91.919,3.17C225.928,187.065,224.508,228.218,198.247,252.725z"/>
				</defs>
				<clipPath id="SVGID_6_">
					<use xlink:href="#SVGID_5_"  overflow="visible"/>
				</clipPath>
				<polygon clip-path="url(#SVGID_6_)" fill="#231F20" points="218.964,198.379 221.01,200.573 189.747,229.843 187.7,227.65 				
					"/>
			</g>
			<g>
				<defs>
					<circle id="SVGID_7_" cx="159.184" cy="205.773" r="65.034"/>
				</defs>
				<clipPath id="SVGID_8_">
					<use xlink:href="#SVGID_7_"  overflow="visible"/>
				</clipPath>
				<polygon clip-path="url(#SVGID_8_)" fill="#231F20" points="220.631,205.046 222.677,207.24 191.719,236.247 189.672,234.054 
									"/>
			</g>
			<g>
				<defs>
					<circle id="SVGID_9_" cx="157.159" cy="206.7" r="65.034"/>
				</defs>
				<clipPath id="SVGID_10_">
					<use xlink:href="#SVGID_9_"  overflow="visible"/>
				</clipPath>
				<polygon clip-path="url(#SVGID_10_)" fill="#231F20" points="219.964,213.712 222.01,215.906 193.69,242.651 191.643,240.457 
									"/>
			</g>
			<g>
				<defs>
					<circle id="SVGID_11_" cx="155.469" cy="208.295" r="65.034"/>
				</defs>
				<clipPath id="SVGID_12_">
					<use xlink:href="#SVGID_11_"  overflow="visible"/>
				</clipPath>
				<polygon clip-path="url(#SVGID_12_)" fill="#231F20" points="219.297,223.046 221.344,225.24 195.66,249.058 193.613,246.865 
									"/>
			</g>
			<g>
				<defs>
					<path id="SVGID_13_" d="M201.483,255.434c-26.258,24.506-67.413,23.089-91.922-3.172c-24.504-26.257-23.08-67.413,3.179-91.919
						c26.26-24.508,67.414-23.087,91.918,3.17C229.166,189.774,227.744,230.927,201.483,255.434z"/>
				</defs>
				<clipPath id="SVGID_14_">
					<use xlink:href="#SVGID_13_"  overflow="visible"/>
				</clipPath>
				<polygon clip-path="url(#SVGID_14_)" fill="#231F20" points="212.964,238.046 215.01,240.24 197.634,255.464 195.587,253.271 
									"/>
			</g>
			<g>
				<defs>
					<path id="SVGID_15_" d="M220.744,209.031c0,35.916-29.115,65.036-65.035,65.036c-35.914,0-65.03-29.12-65.03-65.036
						c0-35.92,29.116-65.036,65.03-65.036C191.628,143.995,220.744,173.112,220.744,209.031z"/>
				</defs>
				<clipPath id="SVGID_16_">
					<use xlink:href="#SVGID_15_"  overflow="visible"/>
				</clipPath>
				<path clip-path="url(#SVGID_16_)" fill="#231F20" d="M84.271,298.229c-33.972,0-61.607-27.637-61.607-61.606
					c0-33.971,27.637-61.608,61.607-61.608s61.607,27.638,61.607,61.608C145.879,270.592,118.242,298.229,84.271,298.229z
					 M84.271,178.014c-32.316,0-58.607,26.292-58.607,58.608c0,32.315,26.291,58.606,58.607,58.606s58.607-26.291,58.607-58.606
					C142.879,204.306,116.587,178.014,84.271,178.014z"/>
			</g>
			<g>
				<defs>
					<path id="SVGID_17_" d="M220.744,209.031c0,35.916-29.115,65.036-65.035,65.036c-35.914,0-65.03-29.12-65.03-65.036
						c0-35.92,29.116-65.036,65.03-65.036C191.628,143.995,220.744,173.112,220.744,209.031z"/>
				</defs>
				<clipPath id="SVGID_18_">
					<use xlink:href="#SVGID_17_"  overflow="visible"/>
				</clipPath>
				<path clip-path="url(#SVGID_18_)" fill="#231F20" d="M84.203,290.134c-29.433,0-53.378-23.944-53.378-53.377
					s23.945-53.378,53.378-53.378c29.431,0,53.376,23.945,53.376,53.378S113.634,290.134,84.203,290.134z M84.203,186.379
					c-27.778,0-50.378,22.6-50.378,50.378s22.6,50.377,50.378,50.377c27.777,0,50.376-22.599,50.376-50.377
					S111.98,186.379,84.203,186.379z"/>
			</g>
			<g>
				<defs>
					<path id="SVGID_19_" d="M220.744,209.031c0,35.916-29.115,65.036-65.035,65.036c-35.914,0-65.03-29.12-65.03-65.036
						c0-35.92,29.116-65.036,65.03-65.036C191.628,143.995,220.744,173.112,220.744,209.031z"/>
				</defs>
				<clipPath id="SVGID_20_">
					<use xlink:href="#SVGID_19_"  overflow="visible"/>
				</clipPath>
				<path clip-path="url(#SVGID_20_)" fill="#231F20" d="M84.144,283.148c-25.515,0-46.271-20.759-46.271-46.273
					c0-25.516,20.757-46.274,46.271-46.274c25.516,0,46.273,20.759,46.273,46.274C130.418,262.389,109.66,283.148,84.144,283.148z
					 M84.144,193.6c-23.859,0-43.271,19.413-43.271,43.274c0,23.86,19.412,43.273,43.271,43.273
					c23.861,0,43.273-19.413,43.273-43.273C127.418,213.013,108.005,193.6,84.144,193.6z"/>
			</g>
			<g>
				<defs>
					<path id="SVGID_21_" d="M220.744,209.031c0,35.916-29.115,65.036-65.035,65.036c-35.914,0-65.03-29.12-65.03-65.036
						c0-35.92,29.116-65.036,65.03-65.036C191.628,143.995,220.744,173.112,220.744,209.031z"/>
				</defs>
				<clipPath id="SVGID_22_">
					<use xlink:href="#SVGID_21_"  overflow="visible"/>
				</clipPath>
				<path clip-path="url(#SVGID_22_)" fill="#231F20" d="M84.095,277.116c-22.136,0-40.144-18.009-40.144-40.144
					c0-22.134,18.008-40.142,40.144-40.142c22.133,0,40.141,18.008,40.141,40.142C124.236,259.108,106.228,277.116,84.095,277.116z
					 M84.095,199.832c-20.48,0-37.144,16.662-37.144,37.142c0,20.48,16.662,37.144,37.144,37.144
					c20.479,0,37.141-16.662,37.141-37.144C121.236,216.494,104.574,199.832,84.095,199.832z"/>
			</g>
			<g>
				<defs>
					<path id="SVGID_23_" d="M220.744,209.031c0,35.916-29.115,65.036-65.035,65.036c-35.914,0-65.03-29.12-65.03-65.036
						c0-35.92,29.116-65.036,65.03-65.036C191.628,143.995,220.744,173.112,220.744,209.031z"/>
				</defs>
				<clipPath id="SVGID_24_">
					<use xlink:href="#SVGID_23_"  overflow="visible"/>
				</clipPath>
				<path clip-path="url(#SVGID_24_)" fill="#231F20" d="M84.05,271.91c-19.217,0-34.85-15.635-34.85-34.851
					c0-19.217,15.633-34.851,34.85-34.851c19.218,0,34.853,15.634,34.853,34.851C118.902,256.276,103.267,271.91,84.05,271.91z
					 M84.05,205.21c-17.562,0-31.85,14.288-31.85,31.851s14.287,31.851,31.85,31.851c17.563,0,31.853-14.288,31.853-31.851
					S101.613,205.21,84.05,205.21z"/>
			</g>
			<g>
				<defs>
					<path id="SVGID_25_" d="M220.744,209.031c0,35.916-29.115,65.036-65.035,65.036c-35.914,0-65.03-29.12-65.03-65.036
						c0-35.92,29.116-65.036,65.03-65.036C191.628,143.995,220.744,173.112,220.744,209.031z"/>
				</defs>
				<clipPath id="SVGID_26_">
					<use xlink:href="#SVGID_25_"  overflow="visible"/>
				</clipPath>
				<path clip-path="url(#SVGID_26_)" fill="#231F20" d="M84.013,267.418c-16.698,0-30.283-13.585-30.283-30.283
					c0-16.697,13.585-30.282,30.283-30.282c16.697,0,30.283,13.585,30.283,30.282C114.296,253.833,100.71,267.418,84.013,267.418z
					 M84.013,209.853c-15.044,0-27.283,12.238-27.283,27.282s12.239,27.283,27.283,27.283c15.043,0,27.283-12.239,27.283-27.283
					S99.056,209.853,84.013,209.853z"/>
			</g>
			<g>
				<defs>
					<path id="SVGID_27_" d="M220.744,209.031c0,35.916-29.115,65.036-65.035,65.036c-35.914,0-65.03-29.12-65.03-65.036
						c0-35.92,29.116-65.036,65.03-65.036C191.628,143.995,220.744,173.112,220.744,209.031z"/>
				</defs>
				<clipPath id="SVGID_28_">
					<use xlink:href="#SVGID_27_"  overflow="visible"/>
				</clipPath>
				<path clip-path="url(#SVGID_28_)" fill="#231F20" d="M83.98,263.542c-14.524,0-26.341-11.817-26.341-26.343
					c0-14.526,11.815-26.343,26.341-26.343c14.524,0,26.341,11.816,26.341,26.343C110.321,251.725,98.505,263.542,83.98,263.542z
					 M83.98,213.857c-12.87,0-23.341,10.472-23.341,23.343c0,12.87,10.471,23.343,23.341,23.343
					c12.871,0,23.341-10.473,23.341-23.343C107.321,224.328,96.851,213.857,83.98,213.857z"/>
			</g>
		</g>
		<polygon fill="#231F20" points="208.451,111.564 195.3,107.882 188.597,100.698 190.791,98.651 196.919,105.22 208.404,108.435 
			215.863,106.104 216.757,108.967 		"/>
		<path fill="#231F20" d="M213.828,107.831l-2.51-21.076l0.072-0.379c0.444-2.33,1.012-5.548,1.416-8.248l-2.519,3.778l-1.074,5.379
			l-18.502,13.876l-3-4l16.974-12.729l0.895-4.476l7.914-11.872h1.338c0.818,0,3.486,0.394,3.486,5.457
			c0,2.87-1.547,11.285-1.943,13.389l2.039,22.144L213.828,107.831z"/>
		<path fill="#231F20" d="M206.949,85.858l6.898,0.985l0.491-7.883c0,0,2.955-9.854,0.492-8.376
			c-2.463,1.478-4.926,7.391-6.897,10.347C205.964,83.887,206.949,85.858,206.949,85.858z"/>
		<path fill="#231F20" d="M197.359,107.383l-2.496-1.664c0.039-0.059,3.936-5.909,5.857-9.274
			c1.889-3.303,4.795-11.035,4.823-11.112l2.81,1.053c-0.121,0.327-3.021,8.036-5.027,11.549
			C201.351,101.388,197.521,107.14,197.359,107.383z"/>
		<path fill="#231F20" d="M206.931,110.093c-0.021-0.342-0.49-8.443,2.711-13.243c2.674-4.01,2.705-9.947,2.705-10.007h3
			c0,0.28-0.037,6.914-3.209,11.671c-2.638,3.954-2.22,11.318-2.214,11.394L206.931,110.093z"/>
		<polygon fill="#231F20" points="197.259,305.017 181.503,269.16 186.082,267.148 198.902,296.327 295.316,200.369 
			220.986,207.576 220.503,202.6 308.761,194.043 		"/>
		<polygon fill="#231F20" points="210.75,262.763 204.771,252.135 209.128,249.684 212.019,254.821 239.669,229.509 
			218.863,230.252 218.685,225.256 253.062,224.026 		"/>
		<polygon fill="#231F20" points="93.08,327.331 84.147,322.866 74.248,310.64 111.289,257.365 115.394,260.219 80.496,310.411 
			87.351,318.878 94.187,322.296 108.41,321.865 136.787,271.847 141.134,274.313 111.371,326.777 		"/>
		
			<rect x="101.97" y="260.927" transform="matrix(-0.8388 -0.5444 0.5444 -0.8388 30.4579 596.0547)" fill="#231F20" width="2.999" height="65.182"/>
		
			<rect x="109.86" y="265.467" transform="matrix(-0.87 -0.4931 0.4931 -0.87 61.5546 611.1498)" fill="#231F20" width="2.998" height="63.983"/>
		
			<rect x="130.822" y="276.029" transform="matrix(-0.8682 -0.4963 0.4963 -0.8682 110.3675 584.3777)" fill="#231F20" width="3.971" height="2.999"/>
		
			<rect x="124.367" y="287.104" transform="matrix(-0.8743 -0.4854 0.4854 -0.8743 97.7497 602.5272)" fill="#231F20" width="5.073" height="3.001"/>
		
			<rect x="119.447" y="297.215" transform="matrix(-0.8323 -0.5544 0.5544 -0.8323 56.5113 614.5287)" fill="#231F20" width="3.553" height="3"/>
		
			<rect x="113.085" y="307.561" transform="matrix(-0.8682 -0.4962 0.4962 -0.8682 61.6228 634.4884)" fill="#231F20" width="3.972" height="2.999"/>
		
			<rect x="107.184" y="316.921" transform="matrix(-0.7474 -0.6644 0.6644 -0.7474 -19.0939 629.5819)" fill="#231F20" width="5.935" height="3.001"/>
		
			<rect x="83.977" y="303.12" transform="matrix(-0.8322 -0.5544 0.5544 -0.8322 -11.7751 605.6765)" fill="#231F20" width="3.554" height="3.001"/>
		
			<rect x="91.76" y="290.542" transform="matrix(-0.8137 -0.5812 0.5812 -0.8137 0.5326 584.2551)" fill="#231F20" width="4.237" height="3"/>
		
			<rect x="100.614" y="278.231" transform="matrix(-0.8137 -0.5813 0.5813 -0.8137 23.7324 567.0681)" fill="#231F20" width="4.239" height="3"/>
		
			<rect x="109.391" y="265.181" transform="matrix(-0.8001 -0.5999 0.5999 -0.8001 41.3733 547.1503)" fill="#231F20" width="4.926" height="3.002"/>
		<path fill="none" stroke="#231F20" stroke-width="3" stroke-miterlimit="10" d="M75.894,168.137"/>
		<path fill="none" stroke="#231F20" stroke-width="3" stroke-miterlimit="10" d="M111.615,183.411"/>
		<path fill="none" stroke="#231F20" stroke-width="3" stroke-miterlimit="10" d="M122.455,175.527"/>
		<path fill="#231F20" d="M38.196,271.333l-6.615-5.141l54.543-42.962l-74.719-13.1l4.332-7.22l0.452-0.19
			c9.548-4.02,71.873-2.64,74.521-2.581l-0.067,3c-17.545-0.403-64.15-0.771-72.853,2.183l-1.563,2.607l77.029,13.504L36.45,266.178
			l2.253,1.75c4.889-1.875,31.104-11.984,39.449-16.375c9.022-4.75,17.263-13.413,17.345-13.5l2.181,2.062
			c-0.349,0.368-8.654,9.106-18.128,14.094c-9.334,4.91-39.295,16.341-40.564,16.825L38.196,271.333z"/>
		<g>
			<g>
				<defs>
					<path id="SVGID_29_" d="M135.757,274.561c0,0,20.691-24.144,4.927-60.107c-15.765-35.971,3.448-7.394,3.448-7.394l41.386,3.941
						l14.043,47.791c0,0-26.607,16.753-37.445,16.753C151.275,275.545,135.757,274.561,135.757,274.561z"/>
				</defs>
				<clipPath id="SVGID_30_">
					<use xlink:href="#SVGID_29_"  overflow="visible"/>
				</clipPath>
				<rect x="130.337" y="213.689" clip-path="url(#SVGID_30_)" fill="#231F20" width="80.308" height="3"/>
			</g>
			<g>
				<defs>
					<path id="SVGID_31_" d="M135.757,274.561c0,0,20.691-24.144,4.927-60.107c-15.765-35.971,3.448-7.394,3.448-7.394l41.386,3.941
						l14.043,47.791c0,0-26.607,16.753-37.445,16.753C151.275,275.545,135.757,274.561,135.757,274.561z"/>
				</defs>
				<clipPath id="SVGID_32_">
					<use xlink:href="#SVGID_31_"  overflow="visible"/>
				</clipPath>
				<rect x="130.337" y="221.08" clip-path="url(#SVGID_32_)" fill="#231F20" width="80.308" height="3"/>
			</g>
			<g>
				<defs>
					<path id="SVGID_33_" d="M135.757,274.561c0,0,20.691-24.144,4.927-60.107c-15.765-35.971,3.448-7.394,3.448-7.394l41.386,3.941
						l14.043,47.791c0,0-26.607,16.753-37.445,16.753C151.275,275.545,135.757,274.561,135.757,274.561z"/>
				</defs>
				<clipPath id="SVGID_34_">
					<use xlink:href="#SVGID_33_"  overflow="visible"/>
				</clipPath>
				<rect x="130.337" y="227.732" clip-path="url(#SVGID_34_)" fill="#231F20" width="80.308" height="3"/>
			</g>
			<g>
				<defs>
					<path id="SVGID_35_" d="M135.757,274.561c0,0,20.691-24.144,4.927-60.107c-15.765-35.971,3.448-7.394,3.448-7.394l41.386,3.941
						l14.043,47.791c0,0-26.607,16.753-37.445,16.753C151.275,275.545,135.757,274.561,135.757,274.561z"/>
				</defs>
				<clipPath id="SVGID_36_">
					<use xlink:href="#SVGID_35_"  overflow="visible"/>
				</clipPath>
				<rect x="128.859" y="233.645" clip-path="url(#SVGID_36_)" fill="#231F20" width="80.307" height="3"/>
			</g>
			<g>
				<defs>
					<path id="SVGID_37_" d="M135.757,274.561c0,0,20.691-24.144,4.927-60.107c-15.765-35.971,3.448-7.394,3.448-7.394l41.386,3.941
						l14.043,47.791c0,0-26.607,16.753-37.445,16.753C151.275,275.545,135.757,274.561,135.757,274.561z"/>
				</defs>
				<clipPath id="SVGID_38_">
					<use xlink:href="#SVGID_37_"  overflow="visible"/>
				</clipPath>
				<rect x="130.337" y="240.296" clip-path="url(#SVGID_38_)" fill="#231F20" width="80.308" height="3"/>
			</g>
			<g>
				<defs>
					<path id="SVGID_39_" d="M135.757,274.561c0,0,20.691-24.144,4.927-60.107c-15.765-35.971,3.448-7.394,3.448-7.394l41.386,3.941
						l14.043,47.791c0,0-26.607,16.753-37.445,16.753C151.275,275.545,135.757,274.561,135.757,274.561z"/>
				</defs>
				<clipPath id="SVGID_40_">
					<use xlink:href="#SVGID_39_"  overflow="visible"/>
				</clipPath>
				<rect x="130.337" y="246.454" clip-path="url(#SVGID_40_)" fill="#231F20" width="80.308" height="3"/>
			</g>
			<g>
				<defs>
					<path id="SVGID_41_" d="M135.757,274.561c0,0,20.691-24.144,4.927-60.107c-15.765-35.971,3.448-7.394,3.448-7.394l41.386,3.941
						l14.043,47.791c0,0-26.607,16.753-37.445,16.753C151.275,275.545,135.757,274.561,135.757,274.561z"/>
				</defs>
				<clipPath id="SVGID_42_">
					<use xlink:href="#SVGID_41_"  overflow="visible"/>
				</clipPath>
				<rect x="130.337" y="259.51" clip-path="url(#SVGID_42_)" fill="#231F20" width="80.308" height="3"/>
			</g>
			<g>
				<defs>
					<path id="SVGID_43_" d="M135.757,274.561c0,0,20.691-24.144,4.927-60.107c-15.765-35.971,3.448-7.394,3.448-7.394l41.386,3.941
						l14.043,47.791c0,0-26.607,16.753-37.445,16.753C151.275,275.545,135.757,274.561,135.757,274.561z"/>
				</defs>
				<clipPath id="SVGID_44_">
					<use xlink:href="#SVGID_43_"  overflow="visible"/>
				</clipPath>
				<rect x="130.337" y="252.858" clip-path="url(#SVGID_44_)" fill="#231F20" width="80.308" height="3"/>
			</g>
			<g>
				<defs>
					<path id="SVGID_45_" d="M135.757,274.561c0,0,20.691-24.144,4.927-60.107c-15.765-35.971,3.448-7.394,3.448-7.394l41.386,3.941
						l14.043,47.791c0,0-26.607,16.753-37.445,16.753C151.275,275.545,135.757,274.561,135.757,274.561z"/>
				</defs>
				<clipPath id="SVGID_46_">
					<use xlink:href="#SVGID_45_"  overflow="visible"/>
				</clipPath>
				<rect x="130.337" y="265.425" clip-path="url(#SVGID_46_)" fill="#231F20" width="80.308" height="3"/>
			</g>
			<g>
				<defs>
					<path id="SVGID_47_" d="M135.757,274.561c0,0,20.691-24.144,4.927-60.107c-15.765-35.971,3.448-7.394,3.448-7.394l41.386,3.941
						l14.043,47.791c0,0-26.607,16.753-37.445,16.753C151.275,275.545,135.757,274.561,135.757,274.561z"/>
				</defs>
				<clipPath id="SVGID_48_">
					<use xlink:href="#SVGID_47_"  overflow="visible"/>
				</clipPath>
				<rect x="130.337" y="272.074" clip-path="url(#SVGID_48_)" fill="#231F20" width="80.308" height="3"/>
			</g>
			<g>
				<defs>
					<path id="SVGID_49_" d="M135.757,274.561c0,0,20.691-24.144,4.927-60.107c-15.765-35.971,3.448-7.394,3.448-7.394l41.386,3.941
						l14.043,47.791c0,0-26.607,16.753-37.445,16.753C151.275,275.545,135.757,274.561,135.757,274.561z"/>
				</defs>
				<clipPath id="SVGID_50_">
					<use xlink:href="#SVGID_49_"  overflow="visible"/>
				</clipPath>
				<rect x="130.337" y="279.464" clip-path="url(#SVGID_50_)" fill="#231F20" width="80.308" height="3"/>
			</g>
		</g>
		<circle fill="#231F20" cx="161.867" cy="152.125" r="1.971"/>
		<circle fill="#231F20" cx="161.867" cy="164.935" r="1.971"/>
		<circle fill="#231F20" cx="171.229" cy="169.369" r="1.97"/>
		<circle fill="#231F20" cx="186.502" cy="172.324" r="1.97"/>
		<circle fill="#231F20" cx="172.707" cy="180.209" r="1.971"/>
		<circle fill="#231F20" cx="192.908" cy="167.891" r="1.971"/>
		<circle fill="#231F20" cx="193.893" cy="185.135" r="1.972"/>
		<circle fill="#231F20" cx="180.249" cy="192.037" r="1.972"/>
		<circle fill="#231F20" cx="164.332" cy="179.223" r="1.971"/>
		<circle fill="#231F20" cx="160.883" cy="192.031" r="1.972"/>
		<circle fill="#231F20" cx="171.875" cy="207.31" r="1.971"/>
		<circle fill="#231F20" cx="152.659" cy="207.804" r="1.972"/>
		<circle fill="#231F20" cx="134.28" cy="188.584" r="1.972"/>
		<circle fill="#231F20" cx="132.458" cy="178.734" r="1.971"/>
		<circle fill="#231F20" cx="136.892" cy="160.011" r="1.971"/>
		<circle fill="#231F20" cx="150.195" cy="191.543" r="1.973"/>
		<circle fill="#231F20" cx="145.117" cy="200.9" r="1.971"/>
		<circle fill="#231F20" cx="160.883" cy="206.813" r="1.972"/>
		<circle fill="#231F20" cx="171.381" cy="201.396" r="1.972"/>
		<circle fill="#231F20" cx="181.083" cy="205.827" r="1.972"/>
		<circle fill="#231F20" cx="194.386" cy="196.959" r="1.973"/>
		<circle fill="#231F20" cx="161.033" cy="198.934" r="1.971"/>
		<circle fill="#231F20" cx="169.75" cy="189.076" r="1.972"/>
		<circle fill="#231F20" cx="203.253" cy="188.09" r="1.971"/>
		<circle fill="#231F20" cx="144.285" cy="182.182" r="1.971"/>
		<circle fill="#231F20" cx="148.223" cy="170.357" r="1.972"/>
		<circle fill="#231F20" cx="120.484" cy="181.193" r="1.971"/>
		<circle fill="#231F20" cx="127.381" cy="169.861" r="1.972"/>
		<circle fill="#231F20" cx="184.682" cy="199.427" r="1.972"/>
		<circle fill="#231F20" cx="185.518" cy="180.209" r="1.972"/>
		<path fill="#231F20" d="M122.666,171.699l-31.688-10.928l4.438-28.033l27.824,18.39L122.666,171.699z M94.316,158.751l25.465,8.78
			l0.414-14.904l-22.447-14.889L94.316,158.751z"/>
		<polygon fill="#231F20" points="75.414,169.74 78.974,142.059 95.839,132.349 97.335,134.948 81.685,143.96 78.747,165.073 
			91.976,158.42 93.318,161.104 		"/>
		<polygon fill="#231F20" points="107.751,178.366 75.499,169.584 76.288,166.689 107.404,175.161 120.527,168.286 121.919,170.944 
					"/>
		<g>
			<path fill="#231F20" d="M155.58,146.499c0.043,0,0.086-0.003,0.129-0.003c7.881,0,15.418,1.479,22.369,4.151l1.229-4.89
				c-7.351-2.75-15.3-4.263-23.599-4.263c-0.129,0-0.256,0.009-0.383,0.01L155.58,146.499z"/>
			<path fill="#231F20" d="M132.031,151.165l-1.672-2.164l-0.188-2.477c-3.414,1.4-6.69,3.066-9.799,4.983l1.344,0.37l-0.498,5.024
				C124.605,154.654,128.224,152.729,132.031,151.165z"/>
			<path fill="#231F20" d="M143.732,142.581c-1.656,0.298-3.299,0.637-4.912,1.054v3.074l1.229,1.773
				c1.826-0.473,3.691-0.854,5.58-1.163L143.732,142.581z"/>
		</g>
		<g>
			<path fill="#231F20" d="M215.078,176.886l-4.774,1.232c0,0-0.091,0.011-0.244,0.024c5.205,9.115,8.186,19.658,8.186,30.889
				c0,34.482-28.053,62.536-62.535,62.536c-34.479,0-62.53-28.054-62.53-62.536c0-12.365,3.62-23.895,9.838-33.608l-4.994-1.468
				c-6.242,10.229-9.846,22.239-9.846,35.076c0,37.239,30.297,67.536,67.532,67.536c37.24,0,67.535-30.297,67.535-67.536
				C223.244,197.398,220.281,186.449,215.078,176.886z"/>
			<path fill="#231F20" d="M203.25,168.478l4.957-1.858c-4.055-5.006-8.805-9.428-14.106-13.106l-2.275,4.514
				C196.05,161.028,199.886,164.545,203.25,168.478z"/>
		</g>
		<path fill="#231F20" d="M205.818,181.619l-0.805-0.331c-0.537-0.222-5.293-2.285-6.673-6.532c-0.508-1.559-0.733-4.028,1.06-6.943
			l0.396-0.643l64.267-29.703l-1.498,5.245c-0.328,1.179-2.91,11.713,7.826,15.689l7.145,2.646L205.818,181.619z M203.328,171.046
			c-0.549,1.188-0.315,1.905-0.231,2.164c0.45,1.387,2.077,2.522,3.104,3.098l56.902-16.319c-4.746-3.87-6.103-9.318-6.031-13.781
			L203.328,171.046z"/>
		<polygon fill="#231F20" points="183.826,169.336 177.447,167.919 172.722,161.847 187.746,97.406 191.519,97.966 190.044,99.346 
			191.654,99.703 178.113,160.634 180.289,163.428 182.777,163.981 187.746,160.542 214.062,106.442 218.558,108.629 
			191.669,163.907 		"/>
		<polygon fill="#231F20" points="183.3,166.166 205.964,110.492 194.138,105.073 178.867,165.181 		"/>
		<g>
			<path fill="#231F20" d="M125.619,78.818c-0.086,0-0.168-0.002-0.25-0.005c-6.17-0.268-17.254-7.379-19.768-12.681
				c-2.119-4.473-0.039-9.881,0.744-11.618l-2.539-9.001c-1.312-3.494-0.824-8.078-0.804-8.271l2.98,0.328
				c-0.004,0.041-0.433,4.12,0.647,6.935l0.045,0.131l2.871,10.18l-0.274,0.527c-0.027,0.053-2.826,5.567-0.961,9.505
				c2.033,4.292,12.151,10.75,17.186,10.969c4.287,0.179,16.285-6.881,20.562-9.617l1.614,2.525
				C146.044,69.77,131.738,78.817,125.619,78.818z"/>
			<path fill="#231F20" d="M104.001,23.365c0,0-7.883,10.593-7.883,13.795c0,3.201,1.971,3.695,2.957,1.725
				c0.984-1.971,5.172-7.144,5.172-7.144s-3.695,7.883-1.971,8.376c1.725,0.491,6.652-8.13,6.652-8.13s-2.957,11.332,0.245,8.13
				c3.203-3.203,5.175-7.638,5.175-7.638s-0.986,6.159,1.229,5.173c2.215-0.984,5.172-6.404,5.172-6.404l4.683-3.942
				c0,0-3.941,9.608,0,9.608c3.942,0,3.448-2.71,3.448-2.71s-1.479,2.71,0.494,2.71c1.97,0,3.695-4.927,3.695-4.927
				s0.738,2.956,3.447,0.739s4.436-4.188,4.436-4.188s3.941,2.709,5.416,12.069c1.48,9.361-0.983,31.286-1.723,32.518l8.129-2.217
				l2.709-16.751l0.986,15.766l4.682-4.681l0.492-9.854c0,0,0.489-29.069-8.377-38.43c-8.867-9.361-16.013-13.302-29.314-8.376
				C123.955,8.583,109.914,6.86,104.001,23.365z"/>
			<path fill="#231F20" d="M99.076,38.884c0,0-1.234,14.288-1.234,20.693c0,6.404,0,6.404,0,6.404l6.16,4.928l1.726-3.695
				l1.229,4.434l5.668,3.695l5.17,1.232l1.234-1.479c0,0-8.129-3.202-11.332-8.129c-3.203-4.928-0.986-8.869,0.246-12.318
				c0,0-3.449-11.823-3.941-15.52c0,0-0.494,0.74-1.725,0.986c-1.232,0.245,1.231-7.391,1.231-7.391L99.076,38.884z"/>
			<path fill="#231F20" d="M135.289,51.694l-3.694-0.492l4.434-4.188c0,0,4.68-1.478,7.637,1.971c0,0-4.436-0.492-5.666,0
				C136.765,49.477,137.011,50.709,135.289,51.694z"/>
			<path fill="#231F20" d="M122.23,51.94c0,0-4.187-4.188-6.404-3.202c-2.217,0.985-3.695,4.188-3.695,4.188s1.726-1.97,3.203-1.97
				c1.479,0,2.711,0,3.447,0.246C119.521,51.448,122.23,51.94,122.23,51.94z"/>
			<path fill="#231F20" d="M119.029,63.272c0,0,4.186,2.216,7.637,0.985c3.449-1.231,5.42-1.97,6.65-2.463
				c1.233-0.493,1.479,0.984,0.248,2.71c-1.232,1.724-3.205,4.681-5.914,4.681s-4.437-2.71-4.437-2.71
				C121.738,65.735,118.289,64.75,119.029,63.272z"/>
			<polygon fill="#231F20" points="135.035,84.606 136.259,72.969 139.242,73.283 138.498,80.368 140.994,79.579 141.898,82.44 			
				"/>
			<path fill="#231F20" d="M131.099,44.797c0,0,2.957-2.217,4.436-2.956c1.478-0.74,7.389-0.74,7.389-0.74l-0.245,1.479
				L131.099,44.797z"/>
			<polygon fill="#231F20" points="111.884,44.797 119.521,44.797 120.013,46.028 110.9,47.26 			"/>
			<polygon fill="#231F20" points="125.33,85.917 123.566,83.491 125.755,81.899 126.408,76.875 129.382,77.261 128.564,83.567 			
				"/>
			<path fill="#231F20" d="M119.007,143.194l0.009-22.423c0.5-5.119,0.881-11.216,0.662-12.63c-0.115-0.104-0.277-0.233-0.438-0.359
				c-0.92-0.724-2.459-1.934-2.689-4.724l-0.112-1.333l-2.938,0.49l-1.459-15.459l4.799-3.899l7.589-2.214l0.456,1.369
				c0.076,0.219,1.972,5.583,7.144,5.381c5.344-0.205,8.229-7.813,8.258-7.892l0.48-1.29L158.122,83l-7.889,16.069l-3.406-0.2
				l1.754,15.792l7.463,20.521l-1.812,0.274c-0.129,0.02-13.033,1.971-16.146,2.688l-1.028,0.237l-0.25-0.389l-0.078,1.655
				L119.007,143.194z M122.007,120.99v18.544l14.813-2.702l-1.477-7.927l4,6c3.275-0.645,9.321-1.631,12.631-2.14l-6.353-17.596
				l-2.168-19.504l4.965,0.292l5.414-11.029l-11.287-3.114c-1.25,2.619-4.639,8.354-10.403,8.575
				c-5.584,0.207-8.412-3.896-9.525-6.095l-4.354,1.271l-3.084,2.505l1.006,10.654l2.971-0.495l0.385,4.577
				c0.123,1.49,0.756,1.986,1.556,2.615c0.385,0.303,0.782,0.616,1.104,1.045C122.552,106.938,123.287,107.915,122.007,120.99z"/>
			<path fill="#231F20" d="M139.386,185.813c-0.31,0-0.63-0.06-0.962-0.192c-1.104-0.44-1.901-1.234-2.239-2.234
				c-0.404-1.202-0.146-2.587,0.771-4.116c1.281-2.138,2.482-10.351,2.262-12.099c-0.145-1.159-2.03-5.73-3.416-8.823
				c-0.852-0.643-2.795-2.185-3.524-3.401c-0.158-0.265-0.529-0.691-0.887-1.104c-1.129-1.297-2.531-2.912-2.531-4.841
				c0-1.529-0.699-6.769-0.969-8.657l2.969-0.424c0.041,0.286,1,7.026,1,9.081c0,0.808,1.037,2.001,1.795,2.873
				c0.465,0.535,0.902,1.04,1.197,1.528c0.397,0.666,2.02,2.016,3.043,2.761l0.319,0.233l0.164,0.362
				c0.593,1.31,3.556,7.949,3.816,10.039c0.281,2.233-0.998,11.235-2.666,14.015c-0.492,0.822-0.582,1.372-0.5,1.613
				c0.051,0.15,0.211,0.264,0.356,0.34c0.355-0.218,1.027-0.966,1.488-1.478c0.385-0.43,0.795-0.884,1.234-1.323
				c0.651-0.651,1.117-2.146,1.526-3.462c0.468-1.496,0.947-3.044,1.847-4.091c0.92-1.075,1.451-3.537,1.6-4.503
				c-0.106-1.572-0.57-4.315-1.416-5.445l-0.371-0.492c-1.221-1.611-1.834-2.421-3.03-5.535c-0.634-1.645-1.084-3.187-1.447-4.425
				c-0.347-1.185-0.646-2.208-0.959-2.833l-0.652-1.305l-2.024-2.314l0.803-8.282l2.985,0.289l-0.678,6.993l1.512,1.8l0.738,1.479
				c0.435,0.867,0.769,2.009,1.154,3.332c0.365,1.248,0.779,2.662,1.369,4.19c1.043,2.719,1.473,3.286,2.621,4.803l0.379,0.502
				c1.701,2.27,1.994,6.723,2.021,7.223l0.008,0.142l-0.02,0.141c-0.055,0.423-0.6,4.193-2.314,6.197
				c-0.495,0.578-0.885,1.824-1.26,3.03c-0.537,1.729-1.094,3.518-2.27,4.69c-0.4,0.401-0.773,0.816-1.125,1.208
				C142.033,184.489,140.839,185.813,139.386,185.813z"/>
			<path fill="#231F20" d="M154.451,195.608c-0.193,0-0.395-0.012-0.606-0.034c-0.601-0.067-1.478-0.362-2.244-1.395
				c-1.64-2.201-1.945-6.713-1.529-8.989c0.213-1.175,0.467-4.219,0.467-12.048c0-1.372-0.774-4.193-1.123-5.333
				c-0.348-0.663-1.588-3.174-1.588-5.26c0-1.247-0.725-2.697-1.004-3.15l-0.191-0.31l-0.26-3.354l-7.065-18.519l2.803-1.069
				l7.221,18.926l0.236,3.078c0.408,0.739,1.262,2.514,1.262,4.397c0,1.294,0.937,3.3,1.297,3.964l0.113,0.271
				c0.133,0.426,1.301,4.222,1.301,6.358c0,6.465-0.174,10.699-0.516,12.585c-0.365,2.003,0.061,4.671,0.619,6.028l3.223-0.958
				c1.016-1.183,2.049-2.771,2.049-3.366c0-1.141-0.733-4.942-1.197-7.072l-0.028-0.208c-0.021-0.272-0.496-6.764-0.496-11.688
				c0-4.433-1.758-7.605-1.775-7.637l-0.192-0.344l-0.002-0.396c0-0.72-0.041-2.832-0.228-3.941
				c-0.252-1.509-0.731-6.298-0.752-6.501c-0.244-3.903-1.705-15.363-1.719-15.479l2.975-0.38
				c0.062,0.475,1.488,11.671,1.734,15.616l0,0c0,0,0.485,4.841,0.721,6.251c0.209,1.257,0.254,3.238,0.264,4.062
				c0.535,1.075,1.976,4.372,1.976,8.75c0,4.481,0.418,10.505,0.479,11.364c0.203,0.946,1.242,5.851,1.242,7.604
				c0,2.141-2.375,4.898-3.104,5.693l-0.279,0.304l-1.609,0.484c-0.045,0.219-0.125,0.438-0.254,0.647
				C156.242,195.257,155.498,195.608,154.451,195.608z"/>
			<path fill="#231F20" d="M164.14,138.101c-1.359,0-2.773-0.249-3.904-0.813c-2.43-1.214-6.312-6.271-7.115-8.143
				c-0.633-1.478-0.301-4.438,0.58-9.732c0.133-0.797,0.244-1.461,0.297-1.882c0.221-1.766,3.021-13.266,3.957-17.08l-7.676-4.604
				l1.543-2.572l9.574,5.743l-0.267,1.075c-1.575,6.402-3.981,16.429-4.155,17.811c-0.056,0.447-0.173,1.154-0.314,2.004
				c-0.318,1.92-1.168,7.02-0.779,8.063c0.648,1.509,4.14,5.856,5.697,6.635c1.566,0.783,4.228,0.497,4.961,0.057
				c0.021-0.014,0.041-0.025,0.058-0.036c-0.072-0.226-0.367-0.843-1.576-2.052c-2.554-2.552-3.15-3.147-3.15-5.987
				c0-0.901-0.453-1.668-0.934-2.481c-0.705-1.191-1.771-2.995-0.197-4.884c2.43-2.913,5.648-16.777,7.363-26.062l-13.068-6.878
				l1.398-2.654l15.012,7.9l-0.193,1.081c-0.436,2.437-4.364,23.928-8.207,28.533c-0.168,0.202-0.219,0.264,0.476,1.438
				c0.569,0.965,1.352,2.287,1.352,4.008c0,1.596,0,1.596,2.229,3.823c1.905,1.907,2.664,3.331,2.5,4.657
				c-0.076,0.619-0.4,1.497-1.515,2.166C167.173,137.777,165.693,138.101,164.14,138.101z"/>
			<path fill="#231F20" d="M93.386,109.775c-2.599,0-7.035-0.979-7.224-1.021l-0.581-0.129L70.735,86.779l2.479-1.687l14.175,20.854
				c1.248,0.257,4.229,0.828,5.996,0.828c1.489-0.074,11.133-4.206,19.588-8.155l1.27,2.718
				C110.007,103.316,95.982,109.775,93.386,109.775z"/>
			<path fill="#231F20" d="M90.439,98.165L74.55,80.281l2.242-1.992l14.614,16.446c1.627-0.499,4.98-1.541,6.402-2.073
				c0.834-0.312,1.729-0.592,2.596-0.861c1.223-0.38,2.377-0.738,3.15-1.125c1.479-0.741,8.133-3.83,8.416-3.96l1.264,2.721
				c-0.068,0.032-6.896,3.202-8.338,3.923c-0.992,0.496-2.26,0.891-3.603,1.308c-0.826,0.257-1.68,0.521-2.432,0.805
				c-1.994,0.748-7.281,2.349-7.504,2.417L90.439,98.165z"/>
		</g>
	</g>
	<path fill="#231F20" d="M271.144,161.673c-0.761,0-1.236-0.016-1.342-0.021l0.178-4.996c4.088,0.148,15.836-0.388,21.158-4.482
		c4.301-3.308,8.623-13.886,11.026-20.9c-5.807,1.652-15.854,4.111-22.971,3.718c-8.369-0.46-10.451,3.183-13.699,10.215
		l-4.539-2.097c3.131-6.777,6.398-13.778,18.517-13.11c9.405,0.516,25.567-4.82,25.729-4.874l4.517-1.505l-1.324,4.571
		c-0.648,2.241-6.557,22.062-14.207,27.946C287.57,161.228,275.242,161.673,271.144,161.673z"/>
	<path fill="#231F20" d="M277.787,161.492c-6.26-1.622-10.715-4.736-13.242-9.257c-3.887-6.945-1.621-14.574-1.521-14.896
		l1.985,1.634l0.404-0.901l0.082,0.5c-0.018,0.06-2.215,6.375,0.642,11.432c1.84,3.262,5.491,6.806,10.358,8.068L277.787,161.492z"
		/>
</g>
<g>
	<path fill="#231F20" d="M72.777,89.106l-4.465-3.349c-0.907-0.297-3.984-1.362-6.001-2.754c-2-1.38-2.718-2.713-2.966-3.367
		l-1.318-1.833c-0.239-0.333-0.519-0.687-0.807-1.052c-1.047-1.33-2.235-2.836-2.489-4.41c-0.292-1.817-0.353-3.733,1.159-5.434
		c0.755-0.843,1.812-2.766,2.227-3.571c0.262-0.79,1.428-3.534,5.074-3.909c0.082-0.07,0.197-0.179,0.287-0.265
		c0.687-0.653,2.294-2.181,4.755-0.933c0.801,0.406,1.51,0.93,2.256,1.677c0.231-0.191,0.386-0.435,0.556-0.702
		c0.083-0.13,0.158-0.248,0.23-0.347c0.822-1.137,2.404-1.044,4.46,0.267c1.037,0.659,1.819,1.968,2.901,3.779l0.278,0.465
		c1.038,1.729,1.135,2.457,1.218,3.596c0.014,0.187,0.029,0.392,0.054,0.629c0.045,0.439,0.164,1.587-2.543,9.149l0.012,0.114
		l0.183,3.221l-1.042,0.727l-1.012-1.449l-0.989,0.055l-0.208-3.036l0.116-0.323c1.717-4.771,2.498-7.587,2.496-8.185
		c-0.026-0.231-0.043-0.467-0.059-0.683c-0.059-0.801-0.079-1.071-0.799-2.271l-0.281-0.47c-0.736-1.233-1.499-2.509-1.936-2.787
		c-0.294-0.188-0.584-0.336-0.815-0.436c-0.409,0.583-1.082,1.347-2.269,1.773l-1.108,0.75l-0.91-1.001
		c-0.805-0.938-1.427-1.471-2.147-1.836c-0.529-0.27-0.629-0.235-1.33,0.431c-0.467,0.444-1.048,0.997-1.92,1.063
		c-2.213,0.169-2.654,1.848-2.658,1.865l-0.118,0.317c-0.153,0.302-1.531,2.994-2.721,4.323c-0.576,0.647-0.687,1.396-0.436,2.96
		c0.13,0.804,1.102,2.038,1.883,3.029c0.317,0.402,0.623,0.791,0.886,1.157l1.631,2.268l0.066,0.299c0,0,0-0.001,0-0.001
		c0.006,0,0.334,0.866,1.855,1.916c1.963,1.354,5.404,2.427,5.439,2.438l0.249,0.077l4.875,3.656L72.777,89.106z"/>
	<path fill="#231F20" d="M77.311,77.557l-2.814-1.038c1.316-3.568,2.735-7.96,2.733-8.836c-0.026-0.23-0.043-0.466-0.059-0.681
		c-0.059-0.803-0.078-1.073-0.798-2.273l-0.288-0.48c-0.734-1.229-1.494-2.5-1.93-2.778c-0.295-0.187-0.584-0.335-0.817-0.435
		c-0.327,0.467-0.822,1.049-1.614,1.482c0.919,0.807,1.471,0.972,1.675,1.005c0.644,0.105,1.164,0.471,1.469,1.028
		c0.596,1.09,0.087,2.541-0.16,3.113l-2.755-1.187c0.03-0.071,0.059-0.153,0.086-0.236c-0.822-0.317-1.684-0.893-2.573-1.721
		c-0.891-0.827-1.295-1.826-1.109-2.74c0.098-0.477,0.448-1.344,1.7-1.793c0.523-0.188,0.751-0.547,1.015-0.962
		c0.084-0.133,0.161-0.252,0.234-0.353c0.471-0.654,1.68-1.493,4.458,0.266c1.039,0.661,1.818,1.965,2.897,3.772l0.284,0.475
		c1.038,1.729,1.135,2.458,1.218,3.599c0.013,0.187,0.028,0.391,0.053,0.628C80.376,68.954,78.465,74.43,77.311,77.557z"/>
</g>
<path fill="#231F20" d="M66.275,76.188c-3.198,0-6.573-3.63-7.008-4.113l1.486-1.338c1.038,1.149,4.426,4.217,6.31,3.275
	c2.229-1.114,3.976-4.354,5.379-6.958c0.293-0.544,0.575-1.066,0.847-1.545l1.739,0.987c-0.265,0.467-0.54,0.976-0.826,1.507
	c-1.538,2.852-3.451,6.4-6.245,7.797C67.414,76.072,66.847,76.188,66.275,76.188z"/>
</svg>
