<?xml version="1.0" encoding="utf-8"?>
<!-- Generator: Adobe Illustrator 15.1.0, SVG Export Plug-In . SVG Version: 6.00 Build 0)  -->
<!DOCTYPE svg PUBLIC "-//W3C//DTD SVG 1.1//EN" "http://www.w3.org/Graphics/SVG/1.1/DTD/svg11.dtd">
<svg version="1.1" id="Layer_1" xmlns="http://www.w3.org/2000/svg" xmlns:xlink="http://www.w3.org/1999/xlink" x="0px" y="0px"
	 width="60px" height="60px" viewBox="0 0 60 60" enable-background="new 0 0 60 60" xml:space="preserve">
<g>
	<path fill="#103F8B" d="M2.664,6.267h3.322v22.691h10.873v2.756H2.664V6.267z"/>
	<path fill="#103F8B" d="M24.524,36.904c-6.758,0-11.438-5.209-11.438-12.91c0-8.079,4.983-13.365,11.778-13.365
		c6.985,0,11.478,5.324,11.478,12.874c0,8.722-5.322,13.401-11.779,13.401H24.524z M24.676,34.227c5.21,0,8.154-4.794,8.154-10.572
		c0-5.059-2.642-10.344-8.116-10.344c-5.474,0-8.193,5.096-8.193,10.608c0,5.361,2.945,10.308,8.117,10.308H24.676z"/>
	<path fill="#103F8B" d="M45.365,38.298c-1.473,0.566-4.418,1.396-7.854,1.396c-3.853,0-7.022-0.979-9.516-3.356
		c-2.189-2.112-3.549-5.514-3.549-9.477c0-7.59,5.248-13.139,13.78-13.139c2.943,0,5.285,0.642,6.379,1.17l-0.83,2.682
		c-1.357-0.643-3.059-1.096-5.625-1.096c-6.19,0-10.229,3.851-10.229,10.23c0,6.457,3.853,10.271,9.815,10.271
		c2.15,0,3.623-0.305,4.38-0.682v-7.588H36.98v-2.643h8.381v12.233L45.365,38.298L45.365,38.298z"/>
	<path fill="#103F8B" d="M45.746,54.966c-6.758,0-11.439-5.21-11.439-12.911c0-8.078,4.983-13.365,11.779-13.365
		c6.984,0,11.479,5.322,11.479,12.875c0,8.723-5.322,13.401-11.778,13.401H45.746z M45.896,52.285c5.211,0,8.153-4.794,8.153-10.57
		c0-5.061-2.643-10.346-8.116-10.346s-8.19,5.098-8.19,10.609c0,5.359,2.944,10.307,8.116,10.307H45.896z"/>
	<g>
		<g>
			<g>
				<defs>
					<ellipse id="SVGID_1_" cx="24.24" cy="23.613" rx="9.143" ry="10.777"/>
				</defs>
				<clipPath id="SVGID_2_">
					<use xlink:href="#SVGID_1_"  overflow="visible"/>
				</clipPath>
				<path clip-path="url(#SVGID_2_)" fill="#FFFFFF" stroke="#103F8B" stroke-width="0.42" stroke-miterlimit="10" d="
					M45.365,38.298c-1.473,0.566-4.418,1.396-7.854,1.396c-3.853,0-7.022-0.979-9.516-3.356c-2.189-2.112-3.549-5.514-3.549-9.477
					c0-7.59,5.248-13.139,13.78-13.139c2.943,0,5.285,0.642,6.379,1.17l-0.83,2.682c-1.357-0.643-3.059-1.096-5.625-1.096
					c-6.19,0-10.229,3.851-10.229,10.23c0,6.457,3.853,10.271,9.815,10.271c2.15,0,3.623-0.305,4.38-0.682v-7.588H36.98v-2.643
					h8.381v12.233L45.365,38.298L45.365,38.298z"/>
			</g>
		</g>
	</g>
</g>
</svg>
