<?xml version="1.0" encoding="utf-8"?>
<!-- Generator: Adobe Illustrator 15.1.0, SVG Export Plug-In . SVG Version: 6.00 Build 0)  -->
<!DOCTYPE svg PUBLIC "-//W3C//DTD SVG 1.1//EN" "http://www.w3.org/Graphics/SVG/1.1/DTD/svg11.dtd">
<svg version="1.1" id="Layer_1" xmlns="http://www.w3.org/2000/svg" xmlns:xlink="http://www.w3.org/1999/xlink" x="0px" y="0px"
	 width="149.412px" height="95.804px" viewBox="0 0 149.412 95.804" enable-background="new 0 0 149.412 95.804"
	 xml:space="preserve">
<g>
	<path fill="#231F20" d="M58.838,73.363H41.823v-8.007h7.292V28.752h-6.291v-8.007h16.015v4.433
		c3.146-3.289,6.576-4.861,10.438-4.861c4.576,0,8.293,1.858,10.867,5.433c2.716,3.717,4.003,7.864,4.003,12.868
		c0,5.147-1.431,9.437-4.146,12.869c-2.716,3.432-6.435,5.146-11.009,5.146c-3.719,0-7.149-1.43-10.152-4.289v13.297V73.363z
		 M72.707,38.333c0-3.002-0.571-5.291-1.857-6.863c-1.288-1.573-2.859-2.288-5.005-2.288c-2.144,0-3.718,0.715-5.146,2.288
		c-1.288,1.573-2.002,3.861-2.002,6.863c0,2.716,0.714,5.004,2.002,6.72c1.286,1.716,3.003,2.574,5.146,2.574
		c2.003,0,3.574-0.715,4.862-2.288C72.135,43.766,72.707,41.478,72.707,38.333z"/>
	<path fill="#231F20" d="M42.539,30.754c0,0-0.143,7.721-4.719,11.295c-4.718,3.718-11.581,1.716-11.581,1.716V13.597h6.291V6.304
		H10.369v7.292h6.147v37.89h29.598V30.754H42.539z"/>
	<polygon fill="#EB2227" points="47.4,84.515 53.263,84.515 50.26,90.95 	"/>
</g>
<g>
	<path fill="#231F20" d="M73.652,72.985c0.326,0,0.627,0.176,0.627,0.626c0,0.451-0.301,0.626-0.627,0.626H68.09v-9.119
		c0-0.401,0.175-0.627,0.626-0.627s0.626,0.226,0.626,0.627v7.867H73.652z"/>
	<path fill="#231F20" d="M82.525,71.631c0,0.865-0.062,1.19-0.765,1.742l-0.727,0.576c-0.25,0.199-0.639,0.538-0.965,0.538h-0.813
		c-0.539,0-0.79-0.351-1.178-0.714l-0.238-0.226v2.418c0,0.413-0.088,0.827-0.602,0.827s-0.601-0.414-0.601-0.827v-7.592
		c0-0.426,0.05-0.89,0.601-0.89c0.489,0,0.602,0.389,0.602,0.789v0.15l0.238-0.213c0.312-0.275,0.789-0.727,1.127-0.727h0.827
		c0.288,0,0.677,0.301,1.002,0.551L81.76,68.6c0.702,0.551,0.765,0.889,0.765,1.741V71.631z M81.322,70.178
		c0-0.225-0.062-0.363-0.25-0.525l-0.902-0.752c-0.112-0.101-0.251-0.213-0.413-0.213h-0.313c-0.176,0-0.389,0.225-0.514,0.351
		l-0.752,0.714c-0.25,0.238-0.338,0.376-0.338,0.639v1.178c0,0.176,0.05,0.4,0.176,0.514l0.914,0.864
		c0.176,0.176,0.363,0.339,0.514,0.339h0.313c0.162,0,0.301-0.113,0.413-0.213l0.902-0.752c0.188-0.163,0.25-0.301,0.25-0.526
		V70.178z"/>
	<path fill="#231F20" d="M94.508,65.744h-0.464c-0.413,0-0.764-0.15-0.764-0.626c0-0.451,0.338-0.627,0.727-0.627h2.092
		c0.978,0,1.466,0.4,1.892,1.253l1.103,2.205c0.25,0.513,0.376,0.877,0.376,1.453c0,0.501-0.138,0.927-0.363,1.378l-1.141,2.279
		c-0.438,0.891-1.002,1.178-1.979,1.178h-2.079c-0.326,0-0.626-0.175-0.626-0.626c0-0.45,0.3-0.626,0.626-0.626h0.602V65.744z
		 M95.761,72.985h0.237c0.526,0,0.651-0.062,0.877-0.526l1.103-2.229c0.138-0.289,0.238-0.502,0.238-0.814
		c0-0.426-0.138-0.664-0.313-1.027l-1.04-2.117c-0.263-0.539-0.375-0.526-0.952-0.526h-0.149V72.985z"/>
	<path fill="#231F20" d="M104.032,74.237c-0.501,0-0.701,0-1.077-0.325l-0.514-0.451c-0.476-0.426-0.613-0.701-0.613-1.353V69.79
		c0-0.639,0.087-1.014,0.588-1.439l0.427-0.363c0.563-0.489,0.839-0.502,1.327-0.502h1.103c0.589,0,0.864,0.062,1.328,0.438
		l0.488,0.389c0.552,0.438,0.627,0.901,0.627,1.565v0.965c0,0.689-0.113,0.89-0.827,0.89h-3.858v0.401
		c0,0.112,0.088,0.263,0.176,0.35l0.3,0.326c0.163,0.176,0.401,0.226,0.802,0.226h2.581c0.401,0,0.827,0.088,0.827,0.602
		c0,0.526-0.477,0.601-0.827,0.601H104.032z M103.03,70.53h3.482v-0.727c0-0.227,0.013-0.414-0.15-0.564l-0.463-0.4
		c-0.15-0.139-0.389-0.15-0.576-0.15h-1.016c-0.225,0-0.413,0-0.613,0.138l-0.413,0.3c-0.15,0.113-0.251,0.201-0.251,0.552V70.53z"
		/>
	<path fill="#231F20" d="M112.279,68.688c-0.25,0-0.676-0.051-0.676,0.338c0,0.2,0.15,0.275,0.325,0.351l3.007,1.366
		c0.776,0.35,1.178,0.839,1.178,1.703c0,1.215-0.827,1.791-1.979,1.791h-1.854c-0.626,0-1.052-0.024-1.503-0.375
		c-0.226-0.176-0.551-0.401-0.551-0.701c0-0.339,0.288-0.602,0.626-0.602c0.188,0,0.325,0.062,0.464,0.213
		c0.213,0.238,0.588,0.263,0.964,0.263h1.629c0.426,0,1.002,0.038,1.002-0.664c0-0.288-0.351-0.476-0.626-0.601l-2.831-1.291
		c-0.664-0.301-1.053-0.689-1.053-1.466c0-0.952,0.752-1.528,1.653-1.528h2.055c0.664,0,0.939,0.037,1.391,0.414
		c0.226,0.188,0.477,0.338,0.477,0.676s-0.288,0.602-0.614,0.602c-0.226,0-0.363-0.088-0.514-0.25
		c-0.2-0.213-0.413-0.238-0.739-0.238H112.279z"/>
	<path fill="#231F20" d="M122.192,73.035h0.901c0.401,0,0.827,0.088,0.827,0.602c0,0.526-0.477,0.601-0.827,0.601h-3.057
		c-0.351,0-0.827-0.074-0.827-0.601c0-0.514,0.427-0.602,0.827-0.602h0.952v-4.347h-0.952c-0.351,0-0.827-0.076-0.827-0.602
		c0-0.514,0.427-0.602,0.827-0.602h1.266c0.688,0,0.89,0.125,0.89,0.84V73.035z M120.375,65.055c0-0.426,0.238-0.564,0.564-0.564
		h0.688c0.326,0,0.564,0.139,0.564,0.564v0.576c0,0.426-0.238,0.563-0.564,0.563h-0.688c-0.326,0-0.564-0.138-0.564-0.563V65.055z"
		/>
	<path fill="#231F20" d="M127.018,69.727c0-0.563,0.162-1.064,0.413-1.266l0.877-0.688c0.25-0.2,0.438-0.288,0.751-0.288h1.166
		c0.325,0,0.714,0.238,1.177,0.602l0.301,0.238v-0.139c0-0.375,0.2-0.701,0.614-0.701c0.526,0,0.589,0.438,0.589,0.84V74.2
		c0,1.09-0.088,1.315-0.589,1.741l-0.401,0.339c-0.525,0.438-0.826,0.514-1.503,0.514h-1.992c-0.351,0-0.826-0.076-0.826-0.602
		c0-0.514,0.426-0.602,0.826-0.602h2.205c0.251,0,0.413-0.113,0.602-0.275l0.301-0.275c0.1-0.101,0.175-0.275,0.175-0.502v-1.653
		l-0.25,0.251c-0.276,0.275-0.651,0.588-0.99,0.588h-1.415c-0.251,0-0.539-0.037-0.902-0.363l-0.752-0.676
		c-0.351-0.326-0.375-0.639-0.375-1.127V69.727z M128.22,71.381c0,0.25,0.013,0.514,0.15,0.626l0.501,0.401
		c0.088,0.074,0.2,0.112,0.351,0.112h0.877c0.15,0,0.326-0.125,0.552-0.313l0.927-0.764c0.088-0.075,0.125-0.238,0.125-0.4v-0.877
		c0-0.164-0.037-0.326-0.125-0.401L130.651,69c-0.226-0.188-0.401-0.312-0.552-0.312h-0.877c-0.15,0-0.263,0.037-0.351,0.112
		l-0.501,0.401c-0.138,0.112-0.15,0.375-0.15,0.626V71.381z"/>
	<path fill="#231F20" d="M136.617,69.916v3.495c0,0.413-0.088,0.826-0.602,0.826s-0.601-0.413-0.601-0.826v-5.036
		c0-0.438,0.05-0.89,0.601-0.89c0.539,0,0.602,0.451,0.602,0.877V68.5v0.025l0.978-0.64c0.312-0.199,0.651-0.4,1.039-0.4h0.89
		c0.464,0,0.752,0.125,1.115,0.438c0.538,0.464,0.514,0.978,0.538,1.629l0.126,3.783c0.013,0.426-0.051,0.901-0.589,0.901
		c-0.488,0-0.589-0.413-0.602-0.814l-0.125-3.707c-0.025-0.74-0.088-1.027-0.814-1.027h-0.401c-0.125,0-0.25,0.037-0.375,0.112
		L136.617,69.916z"/>
</g>
</svg>
