<?xml version="1.0" encoding="utf-8"?>
<!-- Generator: Adobe Illustrator 15.1.0, SVG Export Plug-In . SVG Version: 6.00 Build 0)  -->
<!DOCTYPE svg PUBLIC "-//W3C//DTD SVG 1.1//EN" "http://www.w3.org/Graphics/SVG/1.1/DTD/svg11.dtd">
<svg version="1.1" id="Layer_1" xmlns="http://www.w3.org/2000/svg" xmlns:xlink="http://www.w3.org/1999/xlink" x="0px" y="0px"
	 width="60px" height="60px" viewBox="0 0 60 60" enable-background="new 0 0 60 60" xml:space="preserve">
<g>
	<path fill="none" stroke="#103F8B" stroke-width="2.8" stroke-miterlimit="10" d="M57.27,40.848c0,0.854-0.692,1.545-1.547,1.545
		H4.277c-0.854,0-1.546-0.69-1.546-1.545V5.762c0-0.854,0.692-1.545,1.546-1.545h51.446c0.854,0,1.547,0.691,1.547,1.545V40.848z"/>
	<path fill="#103F8B" stroke="#103F8B" stroke-width="1.2" stroke-miterlimit="10" d="M52.426,37.73
		c0,0.703-0.568,1.271-1.271,1.271H8.846c-0.702,0-1.271-0.567-1.271-1.271V8.879c0-0.703,0.569-1.272,1.271-1.272h42.308
		c0.703,0,1.271,0.569,1.271,1.272L52.426,37.73L52.426,37.73z"/>
	<g>
		<path fill="#FFFFFF" d="M21.076,16.062l2.174,8.194c0.436,1.807,0.869,3.512,1.172,5.185h0.1c0.367-1.639,0.902-3.378,1.438-5.151
			l2.643-8.228h2.475l2.51,8.095c0.602,1.906,1.07,3.646,1.438,5.284h0.103c0.269-1.639,0.701-3.345,1.235-5.251l2.31-8.128h2.91
			L36.361,32.25h-2.676l-2.476-7.727c-0.567-1.84-1.037-3.445-1.438-5.352h-0.068c-0.4,1.94-0.902,3.646-1.471,5.385l-2.609,7.693
			h-2.676l-4.883-16.188L21.076,16.062L21.076,16.062z"/>
	</g>
	<rect x="27.453" y="43.061" fill="#103F8B" width="3.816" height="10.359"/>
	<rect x="16.002" y="53.057" fill="#103F8B" width="26.719" height="2.728"/>
</g>
</svg>
